<?xml version="1.0" encoding="utf-8"?><svg xmlns="http://www.w3.org/2000/svg" xmlns:xlink="http://www.w3.org/1999/xlink" width="1366" height="594" preserveAspectRatio="xMidYMid" viewBox="0 0 1366 594" style="z-index:1;display:block;animation-play-state:paused" ><g transform="" style="animation-play-state:paused" ><linearGradient id="lg-0.18136765521968146" x1="0" x2="1" y1="0" y2="0" style="animation-play-state:paused" ><stop stop-color="#2d93db" offset="0" style="animation-play-state:paused" ></stop>

  
<stop stop-color="#2d93db" offset="1" style="animation-play-state:paused" ></stop></linearGradient>
<path d="M0 0L0 373.4663391113281Q136.60000610351562 297.3990478515625 273.20001220703125 265.08587646484375T546.4000244140625 292.5707092285156T819.5999755859375 274.6923828125T1092.800048828125 213.26943969726562T1366 185.73629760742188L1366 0z" fill="url(#lg-0.18136765521968146)" opacity="0.4" style="opacity:0.4;animation-play-state:paused" ></path>
<path d="M0 0L0 348.5264892578125Q136.60000610351562 348.18658447265625 273.20001220703125 330.2781066894531T546.4000244140625 248.55941772460938T819.5999755859375 255.9432830810547T1092.800048828125 219.62547302246094T1366 200.91676330566406L1366 0z" fill="url(#lg-0.18136765521968146)" opacity="0.4" style="opacity:0.4;animation-play-state:paused" ></path>
<path d="M0 0L0 303.3708801269531Q136.60000610351562 353.3347473144531 273.20001220703125 332.2313537597656T546.4000244140625 271.2682800292969T819.5999755859375 285.47320556640625T1092.800048828125 168.9127197265625T1366 152.56861877441406L1366 0z" fill="url(#lg-0.18136765521968146)" opacity="0.4" style="opacity:0.4;animation-play-state:paused" ></path>
<path d="M0 0L0 336.7421875Q136.60000610351562 361.9537658691406 273.20001220703125 319.2783203125T546.4000244140625 225.5668487548828T819.5999755859375 264.3446350097656T1092.800048828125 215.83775329589844T1366 194.60452270507812L1366 0z" fill="url(#lg-0.18136765521968146)" opacity="0.4" style="opacity:0.4;animation-play-state:paused" ></path>
<path d="M0 0L0 356.31488037109375Q136.60000610351562 320.95562744140625 273.20001220703125 301.5307922363281T546.4000244140625 290.0993957519531T819.5999755859375 253.65553283691406T1092.800048828125 198.12091064453125T1366 165.53475952148438L1366 0z" fill="url(#lg-0.18136765521968146)" opacity="0.4" style="opacity:0.4;animation-play-state:paused" ></path></g></svg>